<?xml version="1.0" standalone="no"?>
<!DOCTYPE svg PUBLIC "-//W3C//DTD SVG 20010904//EN"
 "http://www.w3.org/TR/2001/REC-SVG-20010904/DTD/svg10.dtd">
<svg version="1.0" xmlns="http://www.w3.org/2000/svg"
 width="1024.000000pt" height="1024.000000pt" viewBox="0 0 1024.000000 1024.000000"
 preserveAspectRatio="xMidYMid meet">

<g transform="translate(0.000000,1024.000000) scale(0.100000,-0.100000)"
fill="#003932" stroke="none">
<path d="M3770 6679 c-109 -21 -259 -125 -291 -201 -19 -46 -2 -54 73 -33 59
16 143 17 1306 16 1354 -2 1291 0 1410 -60 130 -66 237 -184 294 -326 l33 -80
3 -317 3 -318 300 0 299 0 0 443 c0 482 -2 507 -58 611 -39 73 -145 177 -220
215 -127 64 -42 61 -1647 60 -803 -1 -1480 -5 -1505 -10z m3214 -515 c23 -23
24 -500 1 -544 -30 -58 -90 -67 -136 -20 l-30 30 3 222 c3 219 3 224 28 260
39 59 103 84 134 52z"/>
<path d="M3557 6245 c-165 -46 -291 -178 -326 -343 -14 -65 -16 -2742 -2
-2742 5 0 11 13 14 28 12 59 131 172 228 216 31 14 90 29 139 35 55 7 505 11
1286 11 1324 0 1238 -4 1337 63 51 34 127 137 145 197 9 27 18 432 13 533 -1
15 -14 17 -123 17 -213 0 -318 40 -449 170 -88 88 -131 167 -155 284 -50 246
84 493 327 600 80 35 147 46 280 46 l120 0 -3 308 -3 307 -29 58 c-37 77 -120
161 -193 195 l-58 27 -1250 2 c-1013 1 -1259 -1 -1298 -12z"/>
<path d="M6158 5149 c-115 -16 -218 -93 -266 -198 -22 -47 -27 -70 -26 -141 0
-72 4 -93 26 -135 42 -80 92 -131 166 -167 l67 -33 617 -3 618 -3 0 341 0 340
-67 0 c-38 1 -295 2 -573 4 -278 2 -531 -1 -562 -5z m138 -232 c29 -26 37 -42
41 -80 10 -90 -40 -147 -132 -147 -42 0 -52 5 -86 39 -35 35 -39 44 -39 91 0
47 4 56 39 91 35 35 44 39 90 39 44 0 56 -5 87 -33z"/>
<path d="M6600 4008 c0 -353 -17 -419 -139 -565 -41 -48 -89 -90 -148 -129
-82 -54 -85 -58 -62 -66 13 -5 98 -8 189 -6 157 3 168 4 222 31 32 16 73 47
93 70 58 67 65 109 65 379 0 265 4 285 60 308 44 18 81 4 102 -40 16 -30 18
-66 18 -260 0 -291 -9 -372 -51 -451 -37 -68 -117 -146 -181 -177 -24 -11 -71
-25 -103 -31 -62 -12 -731 -16 -759 -5 -21 8 -20 37 2 57 9 8 62 37 117 64
l100 48 -1235 3 c-868 2 -1250 0 -1286 -8 -28 -6 -72 -24 -98 -40 -40 -26 -46
-34 -46 -63 0 -89 159 -221 299 -247 74 -14 2958 -14 3032 0 152 29 264 120
349 285 l55 107 3 494 3 494 -300 0 -301 0 0 -252z"/>
</g>
</svg>
